<?xml version="1.0" encoding="UTF-8" standalone="no"?>
<!-- Created with Inkscape (http://www.inkscape.org/) -->

<svg
   version="1.1"
   id="svg1"
   width="490.66666"
   height="510.66666"
   viewBox="0 0 490.66666 510.66666"
   sodipodi:docname="Shield AI Registered - Logomark - Frost.ai"
   xmlns:inkscape="http://www.inkscape.org/namespaces/inkscape"
   xmlns:sodipodi="http://sodipodi.sourceforge.net/DTD/sodipodi-0.dtd"
   xmlns="http://www.w3.org/2000/svg"
   xmlns:svg="http://www.w3.org/2000/svg">
  <defs
     id="defs1">
    <clipPath
       clipPathUnits="userSpaceOnUse"
       id="clipPath2">
      <path
         d="M 0,383 H 368 V 0 H 0 Z"
         transform="translate(-212.479,-53.528999)"
         id="path2" />
    </clipPath>
    <clipPath
       clipPathUnits="userSpaceOnUse"
       id="clipPath4">
      <path
         d="M 0,383 H 368 V 0 H 0 Z"
         transform="translate(-256.876,-134.226)"
         id="path4" />
    </clipPath>
    <clipPath
       clipPathUnits="userSpaceOnUse"
       id="clipPath6">
      <path
         d="M 0,383 H 368 V 0 H 0 Z"
         transform="translate(-292.52101,-305.59791)"
         id="path6" />
    </clipPath>
    <clipPath
       clipPathUnits="userSpaceOnUse"
       id="clipPath8">
      <path
         d="M 0,383 H 368 V 0 H 0 Z"
         transform="translate(-46.002101,-250.55801)"
         id="path8" />
    </clipPath>
    <clipPath
       clipPathUnits="userSpaceOnUse"
       id="clipPath10">
      <path
         d="M 0,383 H 368 V 0 H 0 Z"
         transform="translate(-248.503,-320.52791)"
         id="path10" />
    </clipPath>
    <clipPath
       clipPathUnits="userSpaceOnUse"
       id="clipPath12">
      <path
         d="M 0,383 H 368 V 0 H 0 Z"
         transform="translate(-254.587,-188.13701)"
         id="path12" />
    </clipPath>
    <clipPath
       clipPathUnits="userSpaceOnUse"
       id="clipPath14">
      <path
         d="M 0,383 H 368 V 0 H 0 Z"
         transform="translate(-302.82701,-380.29961)"
         id="path14" />
    </clipPath>
    <clipPath
       clipPathUnits="userSpaceOnUse"
       id="clipPath16">
      <path
         d="M 0,383 H 368 V 0 H 0 Z"
         transform="translate(-114.006,-298.3482)"
         id="path16" />
    </clipPath>
    <clipPath
       clipPathUnits="userSpaceOnUse"
       id="clipPath18">
      <path
         d="M 0,383 H 368 V 0 H 0 Z"
         transform="translate(-7.2638002,-319.24541)"
         id="path18" />
    </clipPath>
    <clipPath
       clipPathUnits="userSpaceOnUse"
       id="clipPath20">
      <path
         d="M 0,383 H 368 V 0 H 0 Z"
         transform="translate(-118.88301,-145.683)"
         id="path20" />
    </clipPath>
  </defs>
  <sodipodi:namedview
     id="namedview1"
     pagecolor="#ffffff"
     bordercolor="#000000"
     borderopacity="0.25"
     inkscape:showpageshadow="2"
     inkscape:pageopacity="0.0"
     inkscape:pagecheckerboard="0"
     inkscape:deskcolor="#d1d1d1">
    <inkscape:page
       x="0"
       y="0"
       inkscape:label="1"
       id="page1"
       width="490.66666"
       height="510.66666"
       margin="1.242676 0.21333332 0 0"
       bleed="0" />
  </sodipodi:namedview>
  <g
     id="layer-MC0"
     inkscape:groupmode="layer"
     inkscape:label="Layer 1">
    <path
       id="path1"
       d="M 0,0 -4.072,-27.141 H 37.559 L 30.295,-52.597 62.397,-51.01 80.07,2.167 c 0,0 -34.732,-4.283 -80.07,-2.162 z"
       style="fill:#ffffff;fill-opacity:1;fill-rule:nonzero;stroke:none"
       transform="matrix(1.3333333,0,0,-1.3333333,283.30533,439.29467)"
       clip-path="url(#clipPath2)" />
    <path
       id="path3"
       d="m 0,0 44.57,1.034 -8.396,-44.313 32.326,3.295 c 0,0 11.963,52.433 12.272,81.104 L 5.452,43.741 -0.005,0.004 Z"
       style="fill:#ffffff;fill-opacity:1;fill-rule:nonzero;stroke:none"
       transform="matrix(1.3333333,0,0,-1.3333333,342.50133,331.69867)"
       clip-path="url(#clipPath4)" />
    <path
       id="path5"
       d="m 0,0 2.944,-35.102 36.978,-8.864 2.261,-43.611 27,-4.329 c 0,0 0.473,26.457 -6.463,73.396 L -0.005,-0.005 Z"
       style="fill:#ffffff;fill-opacity:1;fill-rule:nonzero;stroke:none"
       transform="matrix(1.3333333,0,0,-1.3333333,390.028,103.2028)"
       clip-path="url(#clipPath6)" />
    <path
       id="path7"
       d="m 0,0 c 0,0 -4.062,-20.237 -2.916,-37.643 l 32.654,-2.167 0.099,-47.959 34.044,-5.775 c 0,0 -2.481,21.903 5.354,94.752 z"
       style="fill:#ffffff;fill-opacity:1;fill-rule:nonzero;stroke:none"
       transform="matrix(1.3333333,0,0,-1.3333333,61.336133,176.58933)"
       clip-path="url(#clipPath8)" />
    <path
       id="path9"
       d="M 0,0 36.403,-7.605 29.49,48.848 c 0,0 -20.027,7.615 -72.249,13.624 l -1.259,-23.617 42.534,-6.369 z"
       style="fill:#ffffff;fill-opacity:1;fill-rule:nonzero;stroke:none"
       transform="matrix(1.3333333,0,0,-1.3333333,331.33733,83.296133)"
       clip-path="url(#clipPath10)" />
    <path
       id="path11"
       d="m 0,0 c 0,0 2.879,51.132 1.484,94.046 0,0 -32.102,7.511 -94.148,9.215 l -5.654,-39.558 56.135,-3.397 -3.065,-57.357 z"
       style="fill:#ffffff;fill-opacity:1;fill-rule:nonzero;stroke:none"
       transform="matrix(1.3333333,0,0,-1.3333333,339.44933,259.81733)"
       clip-path="url(#clipPath12)" />
    <path
       id="path13"
       d="m 0,0 3.749,-22.227 29.714,-11.031 6.815,-27.721 24.735,-9.894 -14.406,50.107 z"
       style="fill:#ffffff;fill-opacity:1;fill-rule:nonzero;stroke:none"
       transform="matrix(1.3333333,0,0,-1.3333333,403.76933,3.6005333)"
       clip-path="url(#clipPath14)" />
    <path
       id="path15"
       d="M 0,0 39.216,1.61 52.04,66.928 c 0,0 -28.938,1.633 -73.611,-4.082 L -30.52,34.671 9.075,38.425 Z"
       style="fill:#ffffff;fill-opacity:1;fill-rule:nonzero;stroke:none"
       transform="matrix(1.3333333,0,0,-1.3333333,152.008,112.86907)"
       clip-path="url(#clipPath16)" />
    <path
       id="path17"
       d="m 0,0 -7.264,-29.537 23.809,4.657 c 0,0 -5.598,-28.783 -6.108,-37.947 l 24.286,2.04 c 0,0 8.059,54.118 16.409,72.511 z"
       style="fill:#ffffff;fill-opacity:1;fill-rule:nonzero;stroke:none"
       transform="matrix(1.3333333,0,0,-1.3333333,9.6850667,85.006133)"
       clip-path="url(#clipPath18)" />
    <path
       id="path19"
       d="m 0,0 1.587,-37.948 47.289,-8.055 -0.88,-37.942 38.893,-4.082 8.724,76.443 c 0,0 -41.663,1.638 -95.603,11.584 z"
       style="fill:#ffffff;fill-opacity:1;fill-rule:nonzero;stroke:none"
       transform="matrix(1.3333333,0,0,-1.3333333,158.51067,316.42267)"
       clip-path="url(#clipPath20)" />
  </g>
</svg>
